# Blender 4.0.2
# www.blender.org
mtllib container.mtl
o Container_Low
v -1.156938 0.002894 4.306376
v -1.156938 2.541752 4.306376
v -1.156938 0.002894 -4.306376
v -1.156938 2.541752 -4.306376
v 1.156938 0.002894 4.306376
v 1.156938 2.541752 4.306376
v 1.156938 0.002894 -4.306376
v 1.156938 2.541752 -4.306376
v 0.067512 0.040173 4.388739
v 0.067512 2.500607 4.388739
v 0.067512 0.040173 4.213071
v 0.067512 2.500607 4.213071
v 0.243179 0.040173 4.388739
v 0.243179 2.500607 4.388739
v 0.243179 0.040173 4.213071
v 0.243179 2.500607 4.213071
v -0.067512 0.040173 4.388739
v -0.067512 2.500607 4.388739
v -0.067512 0.040173 4.213071
v -0.067512 2.500607 4.213071
v -0.243179 0.040173 4.388739
v -0.243179 2.500607 4.388739
v -0.243179 0.040173 4.213071
v -0.243179 2.500607 4.213071
v 1.034518 -0.038703 4.415003
v 1.034518 2.683535 4.415003
v 1.034518 -0.038703 4.167734
v 1.034518 2.683535 4.167734
v 1.281788 -0.038703 4.415003
v 1.281788 2.683535 4.415003
v 1.281788 -0.038703 4.167734
v 1.281788 2.683535 4.167734
v -1.384368 -0.038703 4.415003
v -1.384368 2.683535 4.415003
v -1.384368 -0.038703 4.167734
v -1.384368 2.683535 4.167734
v -1.137098 -0.038703 4.415003
v -1.137098 2.683535 4.415003
v -1.137098 -0.038703 4.167734
v -1.137098 2.683535 4.167734
v 1.034518 -0.038703 -4.101482
v 1.034518 2.683535 -4.101482
v 1.034518 -0.038703 -4.348752
v 1.034518 2.683535 -4.348752
v 1.281788 -0.038703 -4.101482
v 1.281788 2.683535 -4.101482
v 1.281788 -0.038703 -4.348752
v 1.281788 2.683535 -4.348752
v -1.384368 -0.038703 -4.101482
v -1.384368 2.683535 -4.101482
v -1.384368 -0.038703 -4.348752
v -1.384368 2.683535 -4.348752
v -1.137098 -0.038703 -4.101482
v -1.137098 2.683535 -4.101482
v -1.137098 -0.038703 -4.348752
v -1.137098 2.683535 -4.348752
v 1.034518 2.493768 -4.412977
v 1.034518 2.493768 4.423677
v 1.034518 2.741038 -4.412977
v 1.034518 2.741038 4.423677
v 1.281788 2.493768 -4.412977
v 1.281788 2.493768 4.423677
v 1.281788 2.741038 -4.412977
v 1.281788 2.741038 4.423677
v -1.384368 2.493768 -4.412977
v -1.384368 2.493768 4.423677
v -1.384368 2.741038 -4.412977
v -1.384368 2.741038 4.423677
v -1.137098 2.493768 -4.412977
v -1.137098 2.493768 4.423677
v -1.137098 2.741038 -4.412977
v -1.137098 2.741038 4.423677
v 1.304090 2.505867 4.415003
v -1.418148 2.505867 4.415003
v 1.304090 2.505867 4.167733
v -1.418148 2.505867 4.167733
v 1.304090 2.753137 4.415003
v -1.418148 2.753137 4.415003
v 1.304090 2.753137 4.167733
v -1.418148 2.753137 4.167733
v 1.304091 2.505868 -4.101481
v -1.418147 2.505868 -4.101481
v 1.304091 2.505868 -4.348751
v -1.418147 2.505868 -4.348751
v 1.304091 2.753138 -4.101481
v -1.418147 2.753138 -4.101481
v 1.304091 2.753139 -4.348751
v -1.418147 2.753138 -4.348751
v 1.304090 -0.016382 4.415003
v -1.418148 -0.016383 4.415003
v 1.304090 -0.016382 4.167733
v -1.418148 -0.016383 4.167733
v 1.304090 0.230888 4.415003
v -1.418148 0.230887 4.415003
v 1.304090 0.230888 4.167733
v -1.418148 0.230887 4.167733
v 1.304091 -0.016382 -4.145824
v -1.418147 -0.016382 -4.145824
v 1.304091 -0.016381 -4.393094
v -1.418147 -0.016382 -4.393094
v 1.304091 0.230889 -4.145824
v -1.418147 0.230889 -4.145824
v 1.304091 0.230889 -4.393094
v -1.418147 0.230889 -4.393094
v 1.034518 0.015624 -4.412977
v 1.034518 0.015624 4.423677
v 1.034518 0.262893 -4.412977
v 1.034518 0.262893 4.423677
v 1.281788 0.015624 -4.412977
v 1.281788 0.015624 4.423677
v 1.281788 0.262893 -4.412977
v 1.281788 0.262893 4.423677
v -1.384368 0.015624 -4.412977
v -1.384368 0.015624 4.423677
v -1.384368 0.262893 -4.412977
v -1.384368 0.262893 4.423677
v -1.137098 0.015624 -4.412977
v -1.137098 0.015624 4.423677
v -1.137098 0.262893 -4.412977
v -1.137098 0.262893 4.423677
vn -1.0000 -0.0000 -0.0000
vn -0.0000 -0.0000 -1.0000
vn 1.0000 -0.0000 -0.0000
vn -0.0000 -0.0000 1.0000
vn -0.0000 -1.0000 -0.0000
vn -0.0000 1.0000 -0.0000
vt 0.663741 0.001958
vt 0.826166 0.001958
vt 0.826166 0.552963
vt 0.663741 0.552963
vt 0.182371 0.850011
vt 0.344795 0.850011
vt 0.344795 0.998042
vt 0.182371 0.998042
vt 0.641265 0.573544
vt 0.641265 0.735969
vt 0.090260 0.735969
vt 0.090260 0.573544
vt 0.886035 0.931816
vt 0.723610 0.931816
vt 0.723610 0.783784
vt 0.886035 0.783784
vt 0.657485 0.552963
vt 0.509453 0.552963
vt 0.509453 0.001958
vt 0.657485 0.001958
vt 0.503197 0.552964
vt 0.355166 0.552964
vt 0.355166 0.001958
vt 0.503197 0.001958
vt 0.024033 0.730952
vt 0.024033 0.573544
vt 0.035272 0.573544
vt 0.035272 0.730952
vt 0.001958 0.905087
vt 0.159365 0.905087
vt 0.159365 0.916325
vt 0.001958 0.916325
vt 0.079423 0.573544
vt 0.079423 0.730952
vt 0.068184 0.730952
vt 0.068184 0.573544
vt 0.159365 0.870097
vt 0.159365 0.881336
vt 0.001958 0.881336
vt 0.001958 0.870097
vt 0.159365 0.852603
vt 0.159365 0.863841
vt 0.001958 0.863841
vt 0.001958 0.852603
vt 0.159365 0.887592
vt 0.159365 0.898830
vt 0.001958 0.898830
vt 0.001958 0.887592
vt 0.068184 0.742225
vt 0.242341 0.742225
vt 0.242341 0.758044
vt 0.068184 0.758044
vt 0.362783 0.827935
vt 0.536940 0.827935
vt 0.536940 0.843754
vt 0.362783 0.843754
vt 0.001958 0.786376
vt 0.176115 0.786376
vt 0.176115 0.802195
vt 0.001958 0.802195
vt 0.745786 0.559220
vt 0.745786 0.733377
vt 0.729967 0.733377
vt 0.729967 0.559220
vt 0.024033 0.982552
vt 0.024033 0.966732
vt 0.039853 0.966732
vt 0.039853 0.982552
vt 0.084003 0.944657
vt 0.084003 0.960476
vt 0.068184 0.960476
vt 0.068184 0.944657
vt 0.647521 0.739633
vt 0.821678 0.739633
vt 0.821678 0.755452
vt 0.647521 0.755452
vt 0.723711 0.559220
vt 0.723711 0.733377
vt 0.707892 0.733377
vt 0.707892 0.559220
vt 0.832422 0.356527
vt 0.832422 0.182371
vt 0.848241 0.182371
vt 0.848241 0.356527
vt 0.767862 0.559220
vt 0.767862 0.733377
vt 0.752043 0.733377
vt 0.752043 0.559220
vt 0.084003 0.966732
vt 0.084003 0.982552
vt 0.068184 0.982552
vt 0.068184 0.966732
vt 0.106079 0.938401
vt 0.090260 0.938401
vt 0.090260 0.922581
vt 0.106079 0.922581
vt 0.429011 0.742225
vt 0.603167 0.742225
vt 0.603167 0.758044
vt 0.429011 0.758044
vt 0.543197 0.783784
vt 0.717354 0.783784
vt 0.717354 0.799603
vt 0.543197 0.799603
vt 0.609424 0.761709
vt 0.783580 0.761709
vt 0.783580 0.777528
vt 0.609424 0.777528
vt 0.840344 0.717351
vt 0.840344 0.543195
vt 0.856164 0.543195
vt 0.856164 0.717351
vt 0.112335 0.960476
vt 0.112335 0.944657
vt 0.128154 0.944657
vt 0.128154 0.960476
vt 0.061928 0.944657
vt 0.061928 0.960476
vt 0.046109 0.960476
vt 0.046109 0.944657
vt 0.685816 0.733377
vt 0.685816 0.559220
vt 0.701635 0.559220
vt 0.701635 0.733377
vt 0.543197 0.805860
vt 0.717353 0.805860
vt 0.717353 0.821679
vt 0.543197 0.821679
vt 0.536941 0.780120
vt 0.362784 0.780120
vt 0.362784 0.764301
vt 0.536941 0.764301
vt 0.362784 0.805860
vt 0.536940 0.805860
vt 0.536940 0.821679
vt 0.362784 0.821679
vt 0.366871 0.894162
vt 0.366871 0.909981
vt 0.351052 0.909981
vt 0.351052 0.894162
vt 0.128154 0.966732
vt 0.128154 0.982552
vt 0.112335 0.982552
vt 0.112335 0.966732
vt 0.084004 0.001958
vt 0.084004 0.567288
vt 0.068184 0.567288
vt 0.068184 0.001958
vt 0.178562 0.567288
vt 0.178562 0.001958
vt 0.194381 0.001958
vt 0.194381 0.567288
vt 0.046109 0.567288
vt 0.046109 0.001958
vt 0.061928 0.001958
vt 0.061928 0.567288
vt 0.266864 0.567287
vt 0.266864 0.001958
vt 0.282683 0.001958
vt 0.282683 0.567287
vt 0.112335 0.938401
vt 0.112335 0.922581
vt 0.128154 0.922581
vt 0.128154 0.938401
vt 0.001958 0.938401
vt 0.001958 0.922581
vt 0.017777 0.922581
vt 0.017777 0.938401
vt 0.128154 0.001958
vt 0.128154 0.567288
vt 0.112335 0.567288
vt 0.112335 0.001958
vt 0.200637 0.567288
vt 0.200637 0.001958
vt 0.216456 0.001958
vt 0.216456 0.567288
vt 0.222713 0.567288
vt 0.222713 0.001958
vt 0.238532 0.001958
vt 0.238532 0.567288
vt 0.311015 0.567287
vt 0.311015 0.001958
vt 0.326834 0.001958
vt 0.326834 0.567287
vt 0.024033 0.938401
vt 0.024033 0.922581
vt 0.039853 0.922581
vt 0.039853 0.938401
vt 0.068184 0.938401
vt 0.068184 0.922581
vt 0.084003 0.922581
vt 0.084003 0.938401
vt 0.356528 0.802195
vt 0.182371 0.802195
vt 0.182371 0.786376
vt 0.356528 0.786376
vt 0.818269 0.733376
vt 0.818269 0.559220
vt 0.834088 0.559220
vt 0.834088 0.733376
vt 0.848241 0.362783
vt 0.848241 0.536939
vt 0.832422 0.536939
vt 0.832422 0.362783
vt 0.017777 0.573544
vt 0.017777 0.747701
vt 0.001958 0.747701
vt 0.001958 0.573544
vt 0.351052 0.872086
vt 0.366871 0.872086
vt 0.366871 0.887905
vt 0.351052 0.887905
vt 0.106079 0.960476
vt 0.090260 0.960476
vt 0.090260 0.944657
vt 0.106079 0.944657
vt 0.663741 0.733377
vt 0.663741 0.559220
vt 0.679560 0.559220
vt 0.679560 0.733377
vt 0.182371 0.827935
vt 0.356527 0.827935
vt 0.356527 0.843754
vt 0.182371 0.843754
vt 0.789937 0.559220
vt 0.789937 0.733377
vt 0.774118 0.733377
vt 0.774118 0.559220
vt 0.001958 0.808452
vt 0.176115 0.808452
vt 0.176115 0.824271
vt 0.001958 0.824271
vt 0.001958 0.960476
vt 0.001958 0.944657
vt 0.017777 0.944657
vt 0.017777 0.960476
vt 0.106079 0.982552
vt 0.090260 0.982552
vt 0.090260 0.966732
vt 0.106079 0.966732
vt 0.796193 0.733377
vt 0.796193 0.559220
vt 0.812013 0.559220
vt 0.812013 0.733377
vt 0.046109 0.747701
vt 0.046109 0.573544
vt 0.061928 0.573544
vt 0.061928 0.747701
vt 0.248598 0.742225
vt 0.422754 0.742225
vt 0.422754 0.758044
vt 0.248598 0.758044
vt 0.848241 0.001958
vt 0.848241 0.176114
vt 0.832422 0.176114
vt 0.832422 0.001958
vt 0.046109 0.922581
vt 0.061928 0.922581
vt 0.061928 0.938401
vt 0.046109 0.938401
vt 0.150230 0.938401
vt 0.134411 0.938401
vt 0.134411 0.922581
vt 0.150230 0.922581
vt 0.001958 0.764301
vt 0.176115 0.764301
vt 0.176115 0.780120
vt 0.001958 0.780120
vt 0.001958 0.830527
vt 0.176114 0.830527
vt 0.176114 0.846346
vt 0.001958 0.846346
vt 0.182371 0.764301
vt 0.356528 0.764301
vt 0.356528 0.780120
vt 0.182371 0.780120
vt 0.543196 0.827935
vt 0.717353 0.827935
vt 0.717353 0.843754
vt 0.543196 0.843754
vt 0.351052 0.865830
vt 0.351052 0.850011
vt 0.366871 0.850011
vt 0.366871 0.865830
vt 0.039853 0.944657
vt 0.039853 0.960476
vt 0.024033 0.960476
vt 0.024033 0.944657
vt 0.348909 0.001958
vt 0.348909 0.567287
vt 0.333090 0.567287
vt 0.333090 0.001958
vt 0.134411 0.567288
vt 0.134411 0.001958
vt 0.150230 0.001958
vt 0.150230 0.567288
vt 0.017777 0.001958
vt 0.017777 0.567288
vt 0.001958 0.567288
vt 0.001958 0.001958
vt 0.244788 0.567287
vt 0.244788 0.001958
vt 0.260607 0.001958
vt 0.260607 0.567287
vt 0.001958 0.982552
vt 0.001958 0.966732
vt 0.017777 0.966732
vt 0.017777 0.982552
vt 0.134411 0.960476
vt 0.134411 0.944657
vt 0.150230 0.944657
vt 0.150230 0.960476
vt 0.039853 0.001958
vt 0.039853 0.567288
vt 0.024033 0.567288
vt 0.024033 0.001958
vt 0.090260 0.567288
vt 0.090260 0.001958
vt 0.106079 0.001958
vt 0.106079 0.567288
vt 0.288939 0.567287
vt 0.288939 0.001958
vt 0.304758 0.001958
vt 0.304758 0.567287
vt 0.156486 0.567288
vt 0.156486 0.001958
vt 0.172305 0.001958
vt 0.172305 0.567288
vt 0.134411 0.982552
vt 0.134411 0.966732
vt 0.150230 0.966732
vt 0.150230 0.982552
vt 0.046109 0.966732
vt 0.061928 0.966732
vt 0.061928 0.982552
vt 0.046109 0.982552
s 0
f 1/1/1 2/2/1 4/3/1 3/4/1
f 3/5/2 4/6/2 8/7/2 7/8/2
f 7/9/3 8/10/3 6/11/3 5/12/3
f 5/13/4 6/14/4 2/15/4 1/16/4
f 3/17/5 7/18/5 5/19/5 1/20/5
f 8/21/6 4/22/6 2/23/6 6/24/6
f 9/25/1 10/26/1 12/27/1 11/28/1
f 15/29/3 16/30/3 14/31/3 13/32/3
f 13/33/4 14/34/4 10/35/4 9/36/4
f 17/37/3 19/38/3 20/39/3 18/40/3
f 23/41/1 21/42/1 22/43/1 24/44/1
f 21/45/4 17/46/4 18/47/4 22/48/4
f 25/49/1 26/50/1 28/51/1 27/52/1
f 27/53/2 28/54/2 32/55/2 31/56/2
f 31/57/3 32/58/3 30/59/3 29/60/3
f 29/61/4 30/62/4 26/63/4 25/64/4
f 27/65/5 31/66/5 29/67/5 25/68/5
f 32/69/6 28/70/6 26/71/6 30/72/6
f 33/73/1 34/74/1 36/75/1 35/76/1
f 35/77/2 36/78/2 40/79/2 39/80/2
f 39/81/3 40/82/3 38/83/3 37/84/3
f 37/85/4 38/86/4 34/87/4 33/88/4
f 35/89/5 39/90/5 37/91/5 33/92/5
f 40/93/6 36/94/6 34/95/6 38/96/6
f 41/97/1 42/98/1 44/99/1 43/100/1
f 43/101/2 44/102/2 48/103/2 47/104/2
f 47/105/3 48/106/3 46/107/3 45/108/3
f 45/109/4 46/110/4 42/111/4 41/112/4
f 43/113/5 47/114/5 45/115/5 41/116/5
f 48/117/6 44/118/6 42/119/6 46/120/6
f 49/121/1 50/122/1 52/123/1 51/124/1
f 51/125/2 52/126/2 56/127/2 55/128/2
f 55/129/3 56/130/3 54/131/3 53/132/3
f 53/133/4 54/134/4 50/135/4 49/136/4
f 51/137/5 55/138/5 53/139/5 49/140/5
f 56/141/6 52/142/6 50/143/6 54/144/6
f 57/145/1 58/146/1 60/147/1 59/148/1
f 59/149/6 60/150/6 64/151/6 63/152/6
f 63/153/3 64/154/3 62/155/3 61/156/3
f 61/157/5 62/158/5 58/159/5 57/160/5
f 59/161/2 63/162/2 61/163/2 57/164/2
f 64/165/4 60/166/4 58/167/4 62/168/4
f 65/169/1 66/170/1 68/171/1 67/172/1
f 67/173/6 68/174/6 72/175/6 71/176/6
f 71/177/3 72/178/3 70/179/3 69/180/3
f 69/181/5 70/182/5 66/183/5 65/184/5
f 67/185/2 71/186/2 69/187/2 65/188/2
f 72/189/4 68/190/4 66/191/4 70/192/4
f 73/193/5 74/194/5 76/195/5 75/196/5
f 75/197/2 76/198/2 80/199/2 79/200/2
f 79/201/6 80/202/6 78/203/6 77/204/6
f 77/205/4 78/206/4 74/207/4 73/208/4
f 75/209/3 79/210/3 77/211/3 73/212/3
f 80/213/1 76/214/1 74/215/1 78/216/1
f 81/217/5 82/218/5 84/219/5 83/220/5
f 83/221/2 84/222/2 88/223/2 87/224/2
f 87/225/6 88/226/6 86/227/6 85/228/6
f 85/229/4 86/230/4 82/231/4 81/232/4
f 83/233/3 87/234/3 85/235/3 81/236/3
f 88/237/1 84/238/1 82/239/1 86/240/1
f 89/241/5 90/242/5 92/243/5 91/244/5
f 91/245/2 92/246/2 96/247/2 95/248/2
f 95/249/6 96/250/6 94/251/6 93/252/6
f 93/253/4 94/254/4 90/255/4 89/256/4
f 91/257/3 95/258/3 93/259/3 89/260/3
f 96/261/1 92/262/1 90/263/1 94/264/1
f 97/265/5 98/266/5 100/267/5 99/268/5
f 99/269/2 100/270/2 104/271/2 103/272/2
f 103/273/6 104/274/6 102/275/6 101/276/6
f 101/277/4 102/278/4 98/279/4 97/280/4
f 99/281/3 103/282/3 101/283/3 97/284/3
f 104/285/1 100/286/1 98/287/1 102/288/1
f 105/289/1 106/290/1 108/291/1 107/292/1
f 107/293/6 108/294/6 112/295/6 111/296/6
f 111/297/3 112/298/3 110/299/3 109/300/3
f 109/301/5 110/302/5 106/303/5 105/304/5
f 107/305/2 111/306/2 109/307/2 105/308/2
f 112/309/4 108/310/4 106/311/4 110/312/4
f 113/313/1 114/314/1 116/315/1 115/316/1
f 115/317/6 116/318/6 120/319/6 119/320/6
f 119/321/3 120/322/3 118/323/3 117/324/3
f 117/325/5 118/326/5 114/327/5 113/328/5
f 115/329/2 119/330/2 117/331/2 113/332/2
f 120/333/4 116/334/4 114/335/4 118/336/4
